<svg xmlns="http://www.w3.org/2000/svg" width="168" height="37" viewBox="158.424 35.025 168 37" enable-background="new 158.424 35.025 168 37"><path fill="#28537D" d="M243.247 58.113c0 1.57 1.274 2.845 2.845 2.845h20.23c1.572 0 2.847-1.273 2.847-2.845V37.88c0-1.57-1.275-2.844-2.847-2.844h-20.23c-1.57 0-2.846 1.274-2.846 2.845v20.233zM271.51 58.113c0 1.57 1.274 2.845 2.845 2.845h20.23c1.573 0 2.847-1.273 2.847-2.845V37.88c0-1.57-1.274-2.844-2.846-2.844h-20.23c-1.57 0-2.846 1.274-2.846 2.845v20.233zM299.815 58.113c0 1.57 1.273 2.845 2.844 2.845h20.23c1.57 0 2.846-1.273 2.846-2.845V37.88c0-1.57-1.274-2.844-2.845-2.844h-20.23c-1.57 0-2.845 1.274-2.845 2.845v20.233zM214.963 58.113c0 1.57 1.274 2.845 2.845 2.845h20.232c1.57 0 2.845-1.273 2.845-2.845V37.88c0-1.57-1.273-2.844-2.845-2.844h-20.232c-1.57 0-2.845 1.274-2.845 2.845v20.233z"/><path fill="#fff" d="M237.364 42.245l-4.72 11.79h-2.35l-2.355-7.057-2.373 7.057h-2.343l-4.72-11.79h2.663l3.226 8.546 2.667-8.545h1.768l2.647 8.548 3.228-8.548h2.66zM262.1 54.025h-2.35v-4.72h-7.09v4.72h-2.35v-9.42c0-.687.217-1.254.652-1.7.436-.445 1-.668 1.697-.668h7.09c.557 0 1.087.253 1.592.76.503.506.757 1.043.757 1.61v9.418zm-2.35-7.09v-2.33h-7.09v2.33h7.09zM290.426 54.025h-3.556l-5.523-4.72h-.362v4.72h-2.35v-11.79h9.04c.648 0 1.2.23 1.66.69.46.46.688 1.02.688 1.68v2.33c0 1.58-.783 2.37-2.35 2.37h-2.895l5.648 4.72zm-2.752-7.09v-2.33h-6.69v2.33h6.69zM308.056 42.236h9.42v2.37h-7.07v2.33h7.07v2.37h-7.07v2.35h7.07v2.368h-9.42"/><path fill="#242424" d="M186.72 58.113c0 1.57 1.274 2.845 2.845 2.845h20.232c1.57 0 2.844-1.273 2.844-2.845V37.88c0-1.57-1.272-2.844-2.843-2.844h-20.232c-1.57 0-2.844 1.274-2.844 2.845v20.233zM158.424 58.113c0 1.57 1.273 2.845 2.844 2.845H181.5c1.57 0 2.845-1.273 2.845-2.845V37.88c0-1.57-1.273-2.844-2.845-2.844h-20.232c-1.57 0-2.844 1.273-2.844 2.845v20.233z"/><path fill="#fff" d="M205.573 54.03h-2.35v-4.722h-7.09v4.72h-2.35V44.61c0-.688.217-1.255.652-1.702.436-.446 1-.668 1.697-.668h7.09c.558 0 1.088.252 1.592.76.504.506.757 1.043.757 1.61l.003 9.42zm-2.35-7.092V44.61h-7.09v2.33h7.09zM177.538 48.147c0 1.448-.462 2.736-1.386 3.866-.923 1.133-2.102 1.84-3.536 2.12v2.248h-2.35v-2.248c-1.43-.28-2.61-.986-3.533-2.12-.924-1.128-1.386-2.417-1.386-3.865 0-1.687.595-3.125 1.786-4.317 1.192-1.19 2.63-1.786 4.318-1.786 1.676 0 3.107.595 4.3 1.786 1.192 1.193 1.788 2.63 1.788 4.317zm-2.35.01c0-1.025-.364-1.907-1.095-2.642-.73-.735-1.61-1.102-2.64-1.102s-1.915.367-2.652 1.102c-.734.734-1.103 1.616-1.103 2.643 0 1.016.37 1.89 1.104 2.625.738.734 1.62 1.102 2.652 1.102 1.03 0 1.912-.368 2.64-1.102.732-.734 1.097-1.61 1.097-2.625z"/><g fill="#242424"><path d="M215.968 71.133c.23.24.548.357.96.357.564 0 .978-.114 1.234-.344.26-.23.392-.48.397-.757V70.36c0-.03-.003-.062-.005-.09-.003-.027-.007-.054-.014-.08-.032-.19-.11-.376-.242-.55-.13-.174-.298-.298-.504-.372l-.227-.076c-.08-.023-.158-.05-.24-.074-.05-.02-.096-.034-.143-.046-.047-.013-.095-.028-.146-.047-.478-.15-.92-.35-1.324-.605-.403-.255-.606-.688-.606-1.298 0-.404.176-.772.53-1.104.355-.333.807-.5 1.354-.5.568 0 1.047.128 1.442.383.396.255.608.615.638 1.083l-.616-.01c0-.23-.127-.44-.38-.634-.256-.194-.616-.29-1.084-.29-.373.02-.67.137-.89.354-.222.218-.34.454-.36.71v.055c0 .026.002.054.004.084.004.03.008.06.014.084.032.15.104.295.214.44.113.142.268.263.468.36.11.057.225.107.34.15.114.044.23.087.34.132.07.024.136.048.205.07.07.02.133.044.196.07.448.147.84.33 1.18.543.34.215.507.588.507 1.116 0 .688-.23 1.158-.688 1.407-.462.248-.964.38-1.51.393h-.085c-.547 0-.993-.142-1.34-.425-.343-.283-.55-.74-.618-1.376l.604-.01c.033.375.163.682.394.923zM220.49 68.73c0-.9.225-1.66.672-2.28.447-.62 1.142-.93 2.08-.93.853 0 1.51.296 1.98.888.465.592.738 1.237.82 1.94.01.08.02.157.02.233.004.076.006.15.006.225V68.908c-.018.767-.247 1.465-.686 2.094-.438.634-1.152.95-2.14.95-1.008 0-1.71-.31-2.11-.924-.396-.616-.61-1.377-.643-2.287v-.01zm.598 0c0 .746.174 1.382.522 1.91.348.524.893.787 1.632.787.74 0 1.284-.243 1.632-.73s.523-1.114.523-1.893c0-.74-.182-1.384-.545-1.93-.365-.55-.9-.82-1.61-.82-.598 0-1.08.22-1.45.66-.37.442-.596.93-.676 1.465-.012.067-.022.14-.028.214-.006.075-.008.146-.008.214v.03c0 .01.002.023.008.035v.064-.006zM231.19 65.708v.54h-2.91v2.212h2.76V69h-2.76v2.884h-.596V65.71h3.505zM236.544 65.774v.476h-2.025v5.634h-.616V66.25h-1.94v-.476h4.58zM237.486 65.708l1.464 5.513 1.754-5.512h.756l1.884 5.513 1.334-5.512h.598l-1.53 6.175h-.82l-1.884-5.568-1.67 5.568h-.812l-1.67-6.175h.596zM248.783 65.708l2.49 6.175h-.67l-.664-1.67h-3.043l-.598 1.67h-.67l2.49-6.175h.663zm-.337.542l-1.353 3.413h2.62l-1.267-3.413zM254.835 65.774c.577.007 1.005.162 1.278.47.272.31.41.646.41 1.013 0 .442-.084.764-.252.962-.168.2-.423.353-.766.458.157.02.273.052.355.1.08.045.146.094.195.143.012.022.025.037.042.054l.043.05c.006.014.012.024.02.034.012.01.02.018.024.023.105.12.176.312.21.58.034.268.064.552.088.85v.074c.02.27.043.524.076.768.03.242.083.426.157.552l-.598-.01c-.087-.1-.144-.252-.172-.457-.028-.207-.05-.428-.07-.664 0-.045 0-.09-.004-.137 0-.048-.008-.095-.014-.146-.03-.387-.102-.74-.215-1.06-.11-.323-.36-.483-.744-.483h-1.818v2.946h-.598v-6.117h2.355zm-1.752 2.62h1.492c.403.007.73-.075.98-.246.247-.172.373-.447.373-.827 0-.368-.113-.638-.337-.81s-.586-.26-1.09-.26h-1.417v2.145zM262.157 65.708v.54h-3.096v2.212h2.966V69h-2.965v2.353h3.236v.53h-3.844V65.71h3.705zM272.12 65.708v.54h-3.098v2.212h2.967V69h-2.968v2.353h3.236v.53h-3.842V65.71h3.703zM274.386 65.708l3.44 5.373V65.71h.6v6.175h-.738l-3.367-5.307v5.307h-.596v-6.175h.662zM284.75 68.73v2.892c-.15.088-.31.154-.48.206-.17.05-.347.09-.528.122-.174.024-.348.042-.52.056-.176.012-.336.02-.486.02-.906 0-1.617-.302-2.125-.905-.51-.603-.765-1.374-.765-2.313 0-.167.01-.345.036-.53.027-.187.07-.378.133-.57.15-.51.423-.98.82-1.406.398-.43.964-.644 1.7-.644.605 0 1.11.15 1.51.452.396.3.61.687.642 1.152l-.67-.01c-.045-.273-.16-.49-.35-.648-.19-.158-.395-.272-.613-.34-.094-.025-.182-.044-.27-.057-.087-.012-.17-.02-.25-.02-.643 0-1.14.254-1.49.757-.352.503-.525 1.126-.525 1.865 0 .952.185 1.613.554 1.987.37.373.776.594 1.22.663.073.012.146.02.222.027.075.005.15.01.225.01.1 0 .21-.006.336-.015.124-.01.248-.023.373-.043.123-.02.25-.046.373-.08.124-.034.235-.075.335-.126v-1.967h-1.558v-.53h2.155v-.002zM287.182 65.708v6.175h-.596v-6.175h.596zM289.683 65.708l3.443 5.373V65.71h.596v6.175h-.735l-3.368-5.307v5.307h-.6v-6.175h.663zM299.224 65.708v.54h-3.097v2.212h2.967V69h-2.967v2.353h3.236v.53h-3.842V65.71h3.704zM304.645 65.708v.54h-3.097v2.212h2.966V69h-2.966v2.353h3.237v.53h-3.845V65.71h3.705zM308.73 65.774c.58.007 1.005.162 1.277.47.274.31.412.646.412 1.013 0 .442-.086.764-.252.962-.17.2-.424.353-.767.458.157.02.275.052.355.1.08.045.146.094.196.143.014.022.027.037.04.054.018.017.03.032.044.05.006.014.015.024.024.034l.022.023c.104.12.176.312.21.58.035.268.063.552.09.85v.074c.018.27.042.524.073.768.03.242.084.426.16.552l-.6-.01c-.087-.1-.145-.252-.17-.457-.03-.207-.054-.428-.072-.664 0-.045 0-.09-.003-.137-.004-.048-.008-.095-.015-.146-.03-.387-.103-.74-.215-1.06-.11-.323-.36-.483-.745-.483h-1.82v2.946h-.594v-6.117h2.352zm-1.754 2.62h1.493c.404.007.73-.075.978-.246.25-.172.373-.447.373-.827 0-.368-.11-.638-.335-.81-.223-.175-.588-.26-1.093-.26h-1.417v2.145zM312.918 65.708v6.175h-.596v-6.175h.596zM315.42 65.708l3.44 5.373V65.71h.597v6.175h-.736l-3.366-5.307v5.307h-.596v-6.175h.66zM325.78 68.73v2.892c-.147.088-.31.154-.48.206-.17.05-.346.09-.525.122-.174.024-.35.042-.522.056-.174.012-.337.02-.486.02-.907 0-1.616-.302-2.127-.905-.51-.603-.763-1.374-.763-2.313 0-.167.012-.345.036-.53.023-.187.07-.378.13-.57.15-.51.423-.98.822-1.406.396-.43.963-.644 1.697-.644.61 0 1.113.15 1.51.452.4.3.614.687.645 1.152l-.673-.01c-.04-.273-.16-.49-.348-.648-.19-.158-.395-.272-.61-.34-.095-.025-.186-.044-.273-.057-.087-.012-.17-.02-.25-.02-.642 0-1.137.254-1.49.757-.35.503-.525 1.126-.525 1.865 0 .952.184 1.613.555 1.987.37.373.775.594 1.217.663.075.012.15.02.225.027.074.005.15.01.223.01.1 0 .213-.006.337-.015.125-.01.25-.023.372-.043.126-.02.25-.046.375-.08.123-.034.235-.075.334-.126v-1.967h-1.558v-.53h2.156v-.002z"/></g><path fill="none" stroke="#929497" stroke-width=".25" d="M306.667 60.957M306.5 65.674M163.307 35.025M163.307 61.016"/></svg>